<?xml version="1.0" encoding="UTF-8"?>
<!DOCTYPE svg PUBLIC "-//W3C//DTD SVG 1.1//EN" "http://www.w3.org/Graphics/SVG/1.1/DTD/svg11.dtd">
<svg xmlns="http://www.w3.org/2000/svg" version="1.1" width="496px" height="495px" style="shape-rendering:geometricPrecision; text-rendering:geometricPrecision; image-rendering:optimizeQuality; fill-rule:evenodd; clip-rule:evenodd" xmlns:xlink="http://www.w3.org/1999/xlink">
<g><path style="opacity:0.004" fill="#000000" d="M 227.5,120.5 C 228.833,121.167 228.833,121.167 227.5,120.5 Z"/></g>
<g><path style="opacity:0.012" fill="#545554" d="M 224.5,122.5 C 223.833,121.167 223.833,121.167 224.5,122.5 Z"/></g>
<g><path style="opacity:1" fill="#299876" d="M 315.5,257.5 C 315.24,264.135 315.24,270.801 315.5,277.5C 317.761,278.409 319.928,278.742 322,278.5C 322.667,288.833 322.667,299.167 322,309.5C 320.68,309.799 319.18,309.966 317.5,310C 318.696,310.654 318.696,311.154 317.5,311.5C 316.808,310.975 316.308,310.308 316,309.5C 315.337,311.863 314.837,314.363 314.5,317C 309.5,317.667 304.5,317.667 299.5,317C 298.726,314.595 298.226,312.095 298,309.5C 294,309.5 290,309.5 286,309.5C 285.667,310.167 285.333,310.833 285,311.5C 284.167,308.5 283.333,305.5 282.5,302.5C 281.893,302.624 281.56,302.957 281.5,303.5C 277.666,302.2 273.832,302.2 270,303.5C 269.5,302.333 268.667,301.5 267.5,301C 269.899,299.04 270.065,296.874 268,294.5C 264.061,294.51 259.728,294.844 255,295.5C 253.705,292.995 253.539,290.328 254.5,287.5C 250.128,288.383 245.794,288.55 241.5,288C 240.798,288.964 240.798,290.798 241.5,293.5C 240.778,293.918 240.278,294.584 240,295.5C 235.476,295.735 231.142,295.401 227,294.5C 226.242,296.769 226.409,298.936 227.5,301C 225.469,303.174 222.802,303.674 219.5,302.5C 216.989,302.288 214.822,302.955 213,304.5C 212.667,303.833 212.333,303.167 212,302.5C 211.759,305.289 211.092,307.956 210,310.5C 208.017,310.046 205.684,309.713 203,309.5C 201.019,309.629 199.353,310.296 198,311.5C 197.667,310.833 197.333,310.167 197,309.5C 197.387,311.774 197.554,313.941 197.5,316C 196.333,316.5 195.5,317.333 195,318.5C 190.251,317.695 185.418,317.195 180.5,317C 179.167,316 179.167,315 180.5,314C 179.5,313.667 178.5,313.333 177.5,313C 178.28,311.927 178.113,310.76 177,309.5C 175.701,309.966 174.201,309.966 172.5,309.5C 172.334,299.161 172.5,288.828 173,278.5C 174.799,278.279 176.632,277.946 178.5,277.5C 179.901,270.449 180.235,263.783 179.5,257.5C 181.456,255.852 183.789,255.185 186.5,255.5C 187.331,248.869 187.664,242.202 187.5,235.5C 185.208,235.244 183.041,235.577 181,236.5C 180.5,235.333 179.667,234.5 178.5,234C 181.288,231.626 180.954,230.293 177.5,230C 178.167,229.667 178.833,229.333 179.5,229C 176.424,228.654 173.424,227.988 170.5,227C 172.396,225.192 172.896,223.025 172,220.5C 170.284,220.411 168.451,220.744 166.5,221.5C 164.771,219.149 164.104,216.482 164.5,213.5C 160.061,215.019 157.561,213.353 157,208.5C 156.667,209.5 156.333,210.5 156,211.5C 155.505,209.527 155.338,207.527 155.5,205.5C 153.459,205.854 151.626,205.854 150,205.5C 149.503,203.19 149.337,200.857 149.5,198.5C 147.08,198.292 144.747,198.626 142.5,199.5C 142.231,193.582 142.231,187.582 142.5,181.5C 145.665,182.036 148.331,181.203 150.5,179C 147.956,177.225 147.956,175.392 150.5,173.5C 157.82,174.457 164.987,174.79 172,174.5C 172.863,172.251 172.363,170.418 170.5,169C 171.966,168.365 173.3,167.531 174.5,166.5C 181.108,167.462 187.774,167.795 194.5,167.5C 194.422,164.748 194.255,162.082 194,159.5C 198.955,159.602 204.122,159.602 209.5,159.5C 209.756,157.208 209.423,155.041 208.5,153C 211.843,151.621 214.843,150.454 217.5,149.5C 216.074,145.098 216.241,140.765 218,136.5C 220.176,136.428 222.176,136.762 224,137.5C 224.359,132.298 224.526,127.298 224.5,122.5C 226.972,122.367 229.639,122.2 232.5,122C 231.529,120.796 230.529,120.296 229.5,120.5C 231.299,116.697 231.965,112.863 231.5,109C 232.126,108.25 232.626,107.416 233,106.5C 234.494,107.747 235.994,107.747 237.5,106.5C 238.814,104.548 239.48,102.715 239.5,101C 244.823,100.501 250.156,100.334 255.5,100.5C 256.625,102.821 256.792,105.154 256,107.5C 257.067,105.717 258.567,105.217 260.5,106C 259.5,106.333 258.5,106.667 257.5,107C 259.112,107.72 260.612,107.554 262,106.5C 263.294,107.854 263.46,109.188 262.5,110.5C 262.822,113.976 263.822,117.142 265.5,120C 264.328,120.419 263.328,121.085 262.5,122C 263.825,121.852 264.992,122.018 266,122.5C 266.333,121.833 266.667,121.167 267,120.5C 268.509,120.923 270.009,122.09 271.5,124C 270.533,128.401 270.2,132.901 270.5,137.5C 272.792,137.756 274.959,137.423 277,136.5C 277.5,137.5 278,138.5 278.5,139.5C 278.353,143.727 278.353,147.894 278.5,152C 281.276,152.359 283.776,152.193 286,151.5C 286.018,153.797 285.851,156.131 285.5,158.5C 290.477,158.392 295.31,159.059 300,160.5C 300.333,160.167 300.667,159.833 301,159.5C 300.578,162.098 300.578,164.764 301,167.5C 307.322,167.479 313.988,167.146 321,166.5C 322.169,167.009 323.002,167.842 323.5,169C 322.62,170.356 322.286,171.856 322.5,173.5C 329.92,173.444 337.253,174.111 344.5,175.5C 344.295,180.587 346.961,182.587 352.5,181.5C 352.666,186.844 352.499,192.177 352,197.5C 349.931,198.264 347.764,198.764 345.5,199C 345.182,201.042 345.015,203.209 345,205.5C 344.333,206.833 343.667,206.833 343,205.5C 342.085,206.328 341.419,207.328 341,208.5C 340.333,207.167 339.333,206.167 338,205.5C 338.285,207.706 338.452,209.873 338.5,212C 336.508,212.574 335.008,213.741 334,215.5C 333.29,214.027 332.124,213.36 330.5,213.5C 329.948,215.331 329.948,216.997 330.5,218.5C 329.833,220.5 328.5,221.833 326.5,222.5C 325.685,220.724 324.518,220.057 323,220.5C 322.242,222.769 322.409,224.936 323.5,227C 321.163,228.687 318.83,230.187 316.5,231.5C 315.573,233.113 314.739,234.779 314,236.5C 312,235.167 310,235.167 308,236.5C 307.5,242.825 307.334,249.158 307.5,255.5C 310.533,255.132 313.2,255.798 315.5,257.5 Z M 260.5,151.5 C 259.504,151.414 258.671,151.748 258,152.5C 257.692,151.692 257.192,151.025 256.5,150.5C 255.636,146.67 255.469,143.004 256,139.5C 257,140.833 258,140.833 259,139.5C 259.318,141.061 260.151,142.228 261.5,143C 261.596,145.79 261.262,148.623 260.5,151.5 Z M 278.5,168.5 C 280.308,168.491 281.975,168.991 283.5,170C 279.639,170.569 279.639,171.402 283.5,172.5C 281.833,173.833 280.167,173.833 278.5,172.5C 279.363,171.274 279.363,169.94 278.5,168.5 Z M 295.5,176.5 C 294.167,176.833 294.167,177.167 295.5,177.5C 296.263,178.268 297.263,178.768 298.5,179C 297.167,179.667 297.167,180.333 298.5,181C 294.167,181.667 289.833,181.667 285.5,181C 288.167,180.333 288.167,179.667 285.5,179C 288.618,178.127 291.618,176.961 294.5,175.5C 295.107,175.624 295.44,175.957 295.5,176.5 Z"/></g>
<g><path style="opacity:0.02" fill="#656665" d="M 170.5,171.5 C 171.833,172.167 171.833,172.167 170.5,171.5 Z"/></g>
<g><path style="opacity:0.012" fill="#545554" d="M 146.5,179.5 C 147.833,180.167 147.833,180.167 146.5,179.5 Z"/></g>
<g><path style="opacity:0.012" fill="#545554" d="M 347.5,179.5 C 348.833,180.167 348.833,180.167 347.5,179.5 Z"/></g>
<g><path style="opacity:0.012" fill="#545554" d="M 348.5,199.5 C 349.833,200.167 349.833,200.167 348.5,199.5 Z"/></g>
<g><path style="opacity:0.055" fill="#485b5a" d="M 337.5,213.5 C 338.833,214.167 338.833,214.167 337.5,213.5 Z"/></g>
<g><path style="opacity:0.004" fill="#1c2626" d="M 162.5,214.5 C 163.525,214.897 163.692,215.563 163,216.5C 162.536,215.906 162.369,215.239 162.5,214.5 Z"/></g>
<g><path style="opacity:0.004" fill="#000000" d="M 323.5,222.5 C 324.833,223.167 324.833,223.167 323.5,222.5 Z"/></g>
<g><path style="opacity:0.008" fill="#717171" d="M 170.5,222.5 C 171.525,222.897 171.692,223.563 171,224.5C 170.536,223.906 170.369,223.239 170.5,222.5 Z"/></g>
<g><path style="opacity:0.004" fill="#000000" d="M 322.5,229.5 C 323.833,230.167 323.833,230.167 322.5,229.5 Z"/></g>
<g><path style="opacity:0.012" fill="#545554" d="M 177.5,231.5 C 178.833,232.167 178.833,232.167 177.5,231.5 Z"/></g>
<g><path style="opacity:0.016" fill="#325e5e" d="M 185.5,236.5 C 186.573,237.251 186.74,238.251 186,239.5C 185.517,238.552 185.351,237.552 185.5,236.5 Z"/></g>
<g><path style="opacity:0.016" fill="#4d7f75" d="M 179.5,257.5 C 178.475,257.103 178.308,256.437 179,255.5C 179.464,256.094 179.631,256.761 179.5,257.5 Z"/></g>
<g><path style="opacity:0.016" fill="#40807f" d="M 315.5,256.5 C 316.833,257.167 316.833,257.167 315.5,256.5 Z"/></g>
<g><path style="opacity:0.008" fill="#7f807f" d="M 241.5,293.5 C 242.833,294.167 242.833,294.167 241.5,293.5 Z"/></g>
<g><path style="opacity:0.012" fill="#545554" d="M 226.5,302.5 C 227.833,303.167 227.833,303.167 226.5,302.5 Z"/></g>
<g><path style="opacity:0.035" fill="#5a7474" d="M 281.5,303.5 C 282.573,304.251 282.74,305.251 282,306.5C 281.517,305.552 281.351,304.552 281.5,303.5 Z"/></g>
<g><path style="opacity:0.016" fill="#00403f" d="M 95.5,391.5 C 96.8333,392.167 96.8333,392.167 95.5,391.5 Z"/></g>
<g><path style="opacity:0.008" fill="#000000" d="M 231.5,391.5 C 232.833,392.167 232.833,392.167 231.5,391.5 Z"/></g>
<g><path style="opacity:0.008" fill="#000000" d="M 276.5,391.5 C 277.833,392.167 277.833,392.167 276.5,391.5 Z"/></g>
<g><path style="opacity:0.004" fill="#000000" d="M 342.5,391.5 C 343.833,392.167 343.833,392.167 342.5,391.5 Z"/></g>
<g><path style="opacity:0.024" fill="#292a29" d="M 295.5,393.5 C 294.833,392.167 294.833,392.167 295.5,393.5 Z"/></g>
<g><path style="opacity:0.008" fill="#000000" d="M 400.5,395.5 C 401.833,396.167 401.833,396.167 400.5,395.5 Z"/></g>
<g><path style="opacity:0.012" fill="#000000" d="M 86.5,396.5 C 87.8333,397.167 87.8333,397.167 86.5,396.5 Z"/></g>
<g><path style="opacity:0.024" fill="#292a29" d="M 443.5,396.5 C 444.833,397.167 444.833,397.167 443.5,396.5 Z"/></g>
<g><path style="opacity:0.008" fill="#111a17" d="M 295.5,396.5 C 294.732,397.263 294.232,398.263 294,399.5C 293.219,398.056 293.386,396.723 294.5,395.5C 295.107,395.624 295.44,395.957 295.5,396.5 Z"/></g>
<g><path style="opacity:0.004" fill="#000000" d="M 194.5,400.5 C 195.833,401.167 195.833,401.167 194.5,400.5 Z"/></g>
<g><path style="opacity:0.039" fill="#193319" d="M 150.5,401.5 C 151.833,402.167 151.833,402.167 150.5,401.5 Z"/></g>
<g><path style="opacity:0.027" fill="#212121" d="M 402.5,402.5 C 402.897,401.475 403.563,401.308 404.5,402C 403.906,402.464 403.239,402.631 402.5,402.5 Z"/></g>
<g><path style="opacity:0.011" fill="#000000" d="M 93.5,402.5 C 95.337,402.639 95.6704,403.306 94.5,404.5C 93.7025,404.043 93.3691,403.376 93.5,402.5 Z"/></g>
<g><path style="opacity:0.02" fill="#323332" d="M 147.5,403.5 C 148.833,404.167 148.833,404.167 147.5,403.5 Z"/></g>
<g><path style="opacity:0.039" fill="#191a19" d="M 149.5,403.5 C 150.833,404.167 150.833,404.167 149.5,403.5 Z"/></g>
<g><path style="opacity:0.008" fill="#000000" d="M 393.5,403.5 C 394.833,404.167 394.833,404.167 393.5,403.5 Z"/></g>
<g><path style="opacity:0.016" fill="#00403f" d="M 145.5,404.5 C 146.833,405.167 146.833,405.167 145.5,404.5 Z"/></g>
<g><path style="opacity:1" fill="#05251c" d="M 440.5,391.5 C 441.222,391.918 441.722,392.584 442,393.5C 442.556,391.405 443.056,391.238 443.5,393C 442.937,395.727 442.27,398.393 441.5,401C 437.446,400.004 433.446,400.338 429.5,402C 432.167,402.667 432.167,403.333 429.5,404C 429.541,413.842 429.541,424.009 429.5,434.5C 429.818,435.647 430.484,436.481 431.5,437C 428.538,438.564 425.538,438.731 422.5,437.5C 420.618,438.093 418.785,438.76 417,439.5C 415.87,426.915 415.037,414.248 414.5,401.5C 410.565,401.794 406.565,401.461 402.5,400.5C 403.248,398.416 403.248,396.416 402.5,394.5C 403.328,393.585 404.328,392.919 405.5,392.5C 408.047,392.265 410.713,392.598 413.5,393.5C 422.649,392.886 431.649,392.219 440.5,391.5 Z"/></g>
<g><path style="opacity:0.005" fill="#000000" d="M 94.5,407.5 C 93.2267,406.923 93.2267,406.257 94.5,405.5C 95.463,405.97 95.463,406.637 94.5,407.5 Z"/></g>
<g><path style="opacity:0.024" fill="#002a29" d="M 94.5,407.5 C 95.8333,408.167 95.8333,408.167 94.5,407.5 Z"/></g>
<g><path style="opacity:0.016" fill="#004000" d="M 166.5,407.5 C 167.833,408.167 167.833,408.167 166.5,407.5 Z"/></g>
<g><path style="opacity:0.903" fill="#06251c" d="M 46.5,392.5 C 58.8338,392.559 71.0005,392.559 83,392.5C 83.772,392.645 84.4387,392.978 85,393.5C 85.4935,395.134 85.6602,396.801 85.5,398.5C 88.3456,398.03 90.6789,398.863 92.5,401C 91.5076,404.07 91.8409,407.07 93.5,410C 92.0862,412.428 90.0862,414.261 87.5,415.5C 86.8076,414.975 86.3076,414.308 86,413.5C 85.51,414.793 85.3433,416.127 85.5,417.5C 88.0728,417.148 90.4062,417.648 92.5,419C 91.8622,422.653 91.8622,426.153 92.5,429.5C 90.8867,431.088 88.8867,432.088 86.5,432.5C 85.2528,434.006 85.2528,435.506 86.5,437C 84.9194,437.707 83.4194,438.54 82,439.5C 81.6667,438.833 81.3333,438.167 81,437.5C 68.9631,437.804 57.4631,437.97 46.5,438C 46.4912,422.833 46.4912,407.667 46.5,392.5 Z M 62.5,400.5 C 67.8402,400.485 72.8402,400.985 77.5,402C 76.8333,402.333 76.1667,402.667 75.5,403C 77.3213,405.456 77.988,408.289 77.5,411.5C 71.8333,411.5 66.1667,411.5 60.5,411.5C 61.2575,408.21 61.2575,405.044 60.5,402C 61.4158,401.722 62.0825,401.222 62.5,400.5 Z M 61.5,418.5 C 64.0795,419.228 66.7462,419.728 69.5,420C 64.7193,420.699 64.5526,421.199 69,421.5C 73.6171,418.725 76.4505,420.225 77.5,426C 77.3333,427.167 77.1667,428.333 77,429.5C 73.8402,429.547 70.6736,429.881 67.5,430.5C 65.0772,430.406 62.7438,429.906 60.5,429C 61.5,428.667 62.5,428.333 63.5,428C 60.596,425.314 59.9293,422.147 61.5,418.5 Z"/></g>
<g><path style="opacity:0.039" fill="#1a1a1a" d="M 172.5,410.5 C 173.251,409.427 174.251,409.26 175.5,410C 174.552,410.483 173.552,410.649 172.5,410.5 Z"/></g>
<g><path style="opacity:0.008" fill="#0a0a0a" d="M 314.5,410.5 C 315.946,409.387 317.613,409.22 319.5,410C 317.866,410.494 316.199,410.66 314.5,410.5 Z"/></g>
<g><path style="opacity:0.016" fill="#004000" d="M 170.5,410.5 C 171.833,411.167 171.833,411.167 170.5,410.5 Z"/></g>
<g><path style="opacity:0.012" fill="#121212" d="M 89.5,415.5 C 89.8966,414.475 90.5632,414.308 91.5,415C 90.9056,415.464 90.2389,415.631 89.5,415.5 Z"/></g>
<g><path style="opacity:0.016" fill="#0c3115" d="M 350.5,415.5 C 351.077,414.227 351.743,414.227 352.5,415.5C 352.03,416.463 351.363,416.463 350.5,415.5 Z"/></g>
<g><path style="opacity:1" fill="#08251d" d="M 346.5,424.5 C 350.029,424.376 353.695,424.209 357.5,424C 358.126,423.25 358.626,422.416 359,421.5C 360.257,423.679 361.757,425.679 363.5,427.5C 362.624,428.251 361.624,428.751 360.5,429C 366.222,430.813 372.222,430.813 378.5,429C 377.5,428.667 376.5,428.333 375.5,428C 378.173,425.489 378.673,422.656 377,419.5C 375.75,420.573 374.416,420.573 373,419.5C 372.055,419.905 371.388,420.572 371,421.5C 369.178,419.955 367.011,419.288 364.5,419.5C 360.377,420.648 356.377,420.148 352.5,418C 353.747,416.506 353.747,415.006 352.5,413.5C 350.722,413.431 348.889,413.097 347,412.5C 346.855,408.339 346.855,404.339 347,400.5C 348.826,398.926 350.993,398.093 353.5,398C 350.833,397.333 350.833,396.667 353.5,396C 352.167,395 352.167,394 353.5,393C 363.7,392.523 374.367,392.523 385.5,393C 386.264,395.069 386.764,397.236 387,399.5C 387.667,395.5 388.333,395.5 389,399.5C 389.626,397.009 390.459,397.009 391.5,399.5C 392.833,402.5 392.833,405.5 391.5,408.5C 390.158,407.098 389.324,407.431 389,409.5C 388.517,408.552 388.351,407.552 388.5,406.5C 385.421,406.26 382.421,406.593 379.5,407.5C 377.668,405.702 377.335,403.868 378.5,402C 377.833,401.667 377.167,401.333 376.5,401C 371.859,400.883 367.692,400.717 364,400.5C 361.233,403.79 360.399,407.457 361.5,411.5C 369.196,411.831 376.862,411.497 384.5,410.5C 383.674,409.549 383.508,408.549 384,407.5C 385.067,408.191 386.234,408.691 387.5,409C 384.833,410.333 384.833,411.667 387.5,413C 386.62,414.356 386.286,415.856 386.5,417.5C 388.5,417.5 390.5,417.5 392.5,417.5C 393.074,422.648 392.407,427.482 390.5,432C 390.833,432.333 391.167,432.667 391.5,433C 390.256,433.456 389.423,432.956 389,431.5C 388.333,435.5 387.667,435.5 387,431.5C 385.309,433.709 385.476,435.542 387.5,437C 386.5,437.5 385.5,438 384.5,438.5C 374.257,438.56 363.924,438.393 353.5,438C 352.903,436.111 352.569,434.278 352.5,432.5C 350.994,431.253 349.494,431.253 348,432.5C 346.748,429.986 346.248,427.32 346.5,424.5 Z"/></g>
<g><path style="opacity:0.008" fill="#000000" d="M 364.5,410.5 C 364.897,409.475 365.563,409.308 366.5,410C 365.906,410.464 365.239,410.631 364.5,410.5 Z"/></g>
<g><path style="opacity:0.012" fill="#000000" d="M 362.5,408.5 C 363.525,408.897 363.692,409.563 363,410.5C 362.536,409.906 362.369,409.239 362.5,408.5 Z"/></g>
<g><path style="opacity:0.059" fill="#102210" d="M 375.5,402.5 C 376.833,403.167 376.833,403.167 375.5,402.5 Z"/></g>
<g><path style="opacity:1" fill="#05251c" d="M 95.5,429.5 C 96.753,417.548 96.753,405.714 95.5,394C 96.6667,393.5 97.5,392.667 98,391.5C 98.6667,392.833 99.3333,392.833 100,391.5C 100.333,392.167 100.667,392.833 101,393.5C 104.541,392.128 108.041,392.294 111.5,394C 110.548,405.579 110.214,417.246 110.5,429C 113.139,430.118 115.973,430.618 119,430.5C 122.29,430.572 125.456,430.072 128.5,429C 125.833,428.333 125.833,427.667 128.5,427C 128.079,417.37 128.079,407.703 128.5,398C 125.833,397.333 125.833,396.667 128.5,396C 127.97,394.256 127.97,392.756 128.5,391.5C 130.059,392.074 131.559,392.74 133,393.5C 135.732,393.541 138.566,393.374 141.5,393C 142.167,395 142.833,397 143.5,399C 141.962,401.928 141.296,405.094 141.5,408.5C 141.976,411.83 141.976,414.997 141.5,418C 143.372,421.31 143.372,424.81 141.5,428.5C 141.709,429.086 142.043,429.586 142.5,430C 140.406,431.352 138.073,431.852 135.5,431.5C 135.752,434.32 135.252,436.986 134,439.5C 132.687,438.427 131.187,437.76 129.5,437.5C 122.95,438.78 116.45,438.78 110,437.5C 109,440.167 108,440.167 107,437.5C 106.692,438.308 106.192,438.975 105.5,439.5C 104.618,438.24 103.618,437.074 102.5,436C 102.833,435.667 103.167,435.333 103.5,435C 102.552,434.517 101.552,434.351 100.5,434.5C 100.881,432.058 100.214,431.391 98.5,432.5C 97.1451,431.812 96.1451,430.812 95.5,429.5 Z"/></g>
<g><path style="opacity:0.027" fill="#232423" d="M 110.5,391.5 C 111.833,392.167 111.833,392.167 110.5,391.5 Z"/></g>
<g><path style="opacity:1" fill="#06261e" d="M 295.5,396.5 C 296.625,395.652 296.625,394.652 295.5,393.5C 296.75,393.423 297.583,392.756 298,391.5C 298.667,392.833 299.333,392.833 300,391.5C 300.333,392.167 300.667,392.833 301,393.5C 314.715,392.699 328.215,392.532 341.5,393C 342.167,393.333 342.833,393.667 343.5,394C 343.209,396.126 342.543,398.46 341.5,401C 338.617,401.296 335.617,401.129 332.5,400.5C 329.86,402.509 327.027,402.509 324,400.5C 321.383,401.421 318.717,401.421 316,400.5C 314.833,400.667 313.667,400.833 312.5,401C 312.833,401.333 313.167,401.667 313.5,402C 310.007,403.478 309.674,405.478 312.5,408C 311.366,409.016 311.699,409.683 313.5,410C 313.167,410.333 312.833,410.667 312.5,411C 320.159,411.5 327.826,411.666 335.5,411.5C 335.892,414.722 335.392,417.722 334,420.5C 326.246,419.353 318.413,419.186 310.5,420C 312.991,420.626 312.991,421.459 310.5,422.5C 311.615,423.598 311.615,424.765 310.5,426C 310.905,426.945 311.572,427.612 312.5,428C 311.833,428.333 311.167,428.667 310.5,429C 315.25,430.077 320.083,430.577 325,430.5C 330.429,430.378 335.595,430.045 340.5,429.5C 341.086,429.709 341.586,430.043 342,430.5C 342.236,432.764 342.736,434.931 343.5,437C 342.271,437.781 340.938,438.281 339.5,438.5C 326.471,438.837 313.638,438.503 301,437.5C 300.667,438.167 300.333,438.833 300,439.5C 299.333,438.167 298.667,438.167 298,439.5C 297.5,438.333 296.667,437.5 295.5,437C 296.825,423.5 296.825,410 295.5,396.5 Z"/></g>
<g><path style="opacity:0.043" fill="#172e2d" d="M 387.5,415.5 C 388.833,416.167 388.833,416.167 387.5,415.5 Z"/></g>
<g><path style="opacity:1" fill="#06251d" d="M 290.5,391.5 C 291.218,393.246 292.218,393.912 293.5,393.5C 292.858,398.451 292.525,403.451 292.5,408.5C 292.578,413.805 293.244,418.971 294.5,424C 293.039,426.319 292.039,428.819 291.5,431.5C 289.483,432.219 287.817,433.386 286.5,435C 286.645,435.772 286.978,436.439 287.5,437C 276.354,438.134 265.187,438.967 254,439.5C 251.332,438.02 251.165,436.52 253.5,435C 252.167,434 252.167,433 253.5,432C 253.167,431.833 252.833,431.667 252.5,431.5C 251.402,435.361 250.569,435.361 250,431.5C 249.577,432.956 248.744,433.456 247.5,433C 247.833,432.667 248.167,432.333 248.5,432C 246.901,430.934 245.901,429.434 245.5,427.5C 246.514,417.119 246.514,406.786 245.5,396.5C 246.098,395.205 246.598,393.872 247,392.5C 252.083,392.023 257.25,392.523 262.5,394C 259.724,395.779 260.057,396.779 263.5,397C 262.5,397.333 261.5,397.667 260.5,398C 260.534,407.411 260.534,416.911 260.5,426.5C 264.361,427.598 264.361,428.431 260.5,429C 265.221,430.458 269.888,430.958 274.5,430.5C 276.397,430.272 277.73,429.272 278.5,427.5C 277.957,416.442 277.79,405.109 278,393.5C 282.268,392.86 286.435,392.193 290.5,391.5 Z"/></g>
<g><path style="opacity:0.004" fill="#000000" d="M 276.5,398.5 C 277.833,399.167 277.833,399.167 276.5,398.5 Z"/></g>
<g><path style="opacity:0.02" fill="#373737" d="M 275.5,395.5 C 276.525,395.897 276.692,396.563 276,397.5C 275.536,396.906 275.369,396.239 275.5,395.5 Z"/></g>
<g><path style="opacity:0.944" fill="#06261d" d="M 231.5,392.5 C 232.189,393.774 233.023,393.774 234,392.5C 234.833,393.333 235.667,394.167 236.5,395C 235.483,396.049 235.316,397.216 236,398.5C 238.988,397.256 241.155,398.256 242.5,401.5C 241.515,409.152 241.515,416.652 242.5,424C 241.773,425.399 241.273,426.899 241,428.5C 240.925,426.065 240.092,425.398 238.5,426.5C 237.791,425.596 236.791,425.263 235.5,425.5C 235.238,426.978 235.571,428.311 236.5,429.5C 238.235,430.057 239.902,430.39 241.5,430.5C 243.873,438.971 241.54,441.305 234.5,437.5C 234.81,435.799 234.31,434.132 233,432.5C 232.751,433.624 232.251,434.624 231.5,435.5C 231.467,434.011 230.967,432.678 230,431.5C 229.257,433.441 229.424,435.274 230.5,437C 229.333,437.5 228.5,438.333 228,439.5C 227.333,438.167 226.667,438.167 226,439.5C 225.667,438.833 225.333,438.167 225,437.5C 218,438.167 211,438.833 204,439.5C 203.5,438.333 202.667,437.5 201.5,437C 202.576,435.274 202.743,433.441 202,431.5C 201.193,435.449 200.693,435.449 200.5,431.5C 198.692,431.509 197.025,431.009 195.5,430C 196.321,419.91 196.821,409.744 197,399.5C 198.205,398.929 199.372,398.262 200.5,397.5C 199.494,396.604 199.494,395.938 200.5,395.5C 201.281,396.729 201.781,398.062 202,399.5C 202.309,398.234 202.809,397.067 203.5,396C 201.789,394.867 201.289,393.367 202,391.5C 202.667,394.167 203.333,394.167 204,391.5C 205,392.167 206,392.833 207,393.5C 215.081,392.518 223.248,392.184 231.5,392.5 Z M 215.5,425.5 C 216.473,426.791 217.473,426.791 218.5,425.5C 219.604,426.631 219.271,427.465 217.5,428C 218.448,428.483 219.448,428.649 220.5,428.5C 220.351,427.448 220.517,426.448 221,425.5C 222.08,428.237 221.246,429.904 218.5,430.5C 216.595,429.848 214.595,429.681 212.5,430C 211.484,429.481 210.818,428.647 210.5,427.5C 210.852,426.214 211.518,425.381 212.5,425C 212.37,423.941 211.87,423.108 211,422.5C 210.169,415.476 210.336,408.476 211.5,401.5C 216.972,400.054 222.639,400.22 228.5,402C 223.167,402.667 223.167,403.333 228.5,404C 227.95,406.214 227.95,408.548 228.5,411C 228.219,413.292 227.552,415.458 226.5,417.5C 226.167,416.833 225.833,416.167 225.5,415.5C 222.872,417.633 220.039,417.966 217,416.5C 214.478,419.213 213.978,422.213 215.5,425.5 Z"/></g>
<g><path style="opacity:0.004" fill="#000000" d="M 366.5,420.5 C 367.833,421.167 367.833,421.167 366.5,420.5 Z"/></g>
<g><path style="opacity:0.012" fill="#000000" d="M 355.5,421.5 C 356.833,422.167 356.833,422.167 355.5,421.5 Z"/></g>
<g><path style="opacity:0.016" fill="#00403f" d="M 145.5,424.5 C 144.833,423.167 144.833,423.167 145.5,424.5 Z"/></g>
<g><path style="opacity:0.024" fill="#292a29" d="M 346.5,424.5 C 345.833,423.167 345.833,423.167 346.5,424.5 Z"/></g>
<g><path style="opacity:0.024" fill="#002a00" d="M 93.5,425.5 C 94.8333,426.167 94.8333,426.167 93.5,425.5 Z"/></g>
<g><path style="opacity:0.004" fill="#000000" d="M 242.5,425.5 C 243.833,426.167 243.833,426.167 242.5,425.5 Z"/></g>
<g><path style="opacity:0.008" fill="#000000" d="M 145.5,426.5 C 146.833,427.167 146.833,427.167 145.5,426.5 Z"/></g>
<g><path style="opacity:0.043" fill="#141d1d" d="M 238.5,426.5 C 238.361,428.337 237.694,428.67 236.5,427.5C 236.957,426.702 237.624,426.369 238.5,426.5 Z"/></g>
<g><path style="opacity:0.008" fill="#000000" d="M 275.5,427.5 C 276.833,428.167 276.833,428.167 275.5,427.5 Z"/></g>
<g><path style="opacity:0.035" fill="#1b1c1b" d="M 95.5,429.5 C 94.8333,428.167 94.8333,428.167 95.5,429.5 Z"/></g>
<g><path style="opacity:0.012" fill="#121212" d="M 344.5,427.5 C 345.525,427.897 345.692,428.563 345,429.5C 344.536,428.906 344.369,428.239 344.5,427.5 Z"/></g>
<g><path style="opacity:1" fill="#06251c" d="M 175.5,401.5 C 173.034,400.366 170.367,400.199 167.5,401C 166.761,403.028 166.428,405.195 166.5,407.5C 164.464,410.338 162.964,410.005 162,406.5C 160.805,411.229 160.471,416.896 161,423.5C 162.667,424.833 164.333,424.833 166,423.5C 167.113,424.76 167.28,425.927 166.5,427C 169.167,427.667 169.167,428.333 166.5,429C 170.407,430.856 174.407,430.856 178.5,429C 174.5,428.333 174.5,427.667 178.5,427C 177.565,424.619 177.232,422.119 177.5,419.5C 175.011,419.702 172.677,419.202 170.5,418C 171.833,416.333 171.833,414.667 170.5,413C 177.385,411.575 184.385,411.075 191.5,411.5C 191.551,418.509 191.885,425.009 192.5,431C 191.827,433.859 190.993,436.692 190,439.5C 189.333,438.833 188.667,438.167 188,437.5C 179.549,437.622 170.882,437.622 162,437.5C 161.667,438.167 161.333,438.833 161,439.5C 159.748,436.986 159.248,434.32 159.5,431.5C 157.05,431.702 154.717,431.369 152.5,430.5C 152.586,429.504 152.252,428.671 151.5,428C 149.273,427.059 147.273,425.892 145.5,424.5C 145.885,418.747 146.385,412.747 147,406.5C 148.734,405.751 150.567,405.251 152.5,405C 151.885,402.532 152.718,400.366 155,398.5C 156.558,399.345 157.558,398.679 158,396.5C 158.333,397.167 158.667,397.833 159,398.5C 159.29,396.048 159.956,393.715 161,391.5C 161.333,392.167 161.667,392.833 162,393.5C 168.384,392.43 174.551,392.43 180.5,393.5C 183.761,393.097 186.928,392.43 190,391.5C 193.052,394.602 193.218,397.769 190.5,401C 187.456,401.342 184.29,401.175 181,400.5C 179.362,402.518 177.529,402.851 175.5,401.5 Z"/></g>
<g><path style="opacity:0.024" fill="#002a00" d="M 175.5,420.5 C 176.833,421.167 176.833,421.167 175.5,420.5 Z"/></g>
<g><path style="opacity:0.035" fill="#1b1c1b" d="M 170.5,419.5 C 171.833,420.167 171.833,420.167 170.5,419.5 Z"/></g>
<g><path style="opacity:0.016" fill="#00403f" d="M 169.5,415.5 C 170.833,416.167 170.833,416.167 169.5,415.5 Z"/></g>
<g><path style="opacity:0.008" fill="#000000" d="M 175.5,401.5 C 174.833,402.167 174.833,402.167 175.5,401.5 Z"/></g>
<g><path style="opacity:0.024" fill="#292a29" d="M 152.5,430.5 C 151.833,431.167 151.833,431.167 152.5,430.5 Z"/></g>
<g><path style="opacity:0.008" fill="#000000" d="M 293.5,430.5 C 294.833,431.167 294.833,431.167 293.5,430.5 Z"/></g>
<g><path style="opacity:0.012" fill="#000000" d="M 344.5,430.5 C 345.833,431.167 345.833,431.167 344.5,430.5 Z"/></g>
<g><path style="opacity:0.004" fill="#000000" d="M 156.5,433.5 C 156.897,432.475 157.563,432.308 158.5,433C 157.906,433.464 157.239,433.631 156.5,433.5 Z"/></g>
<g><path style="opacity:0.006" fill="#000000" d="M 243.5,432.5 C 244.525,432.897 244.692,433.563 244,434.5C 243.536,433.906 243.369,433.239 243.5,432.5 Z"/></g>
<g><path style="opacity:0.004" fill="#000000" d="M 350.5,432.5 C 351.833,433.167 351.833,433.167 350.5,432.5 Z"/></g>
<g><path style="opacity:0.004" fill="#000000" d="M 430.5,434.5 C 431.833,435.167 431.833,435.167 430.5,434.5 Z"/></g>
<g><path style="opacity:0.024" fill="#292a29" d="M 85.5,438.5 C 86.8333,439.167 86.8333,439.167 85.5,438.5 Z"/></g>
<g><path style="opacity:0.004" fill="#000000" d="M 165.5,438.5 C 166.833,439.167 166.833,439.167 165.5,438.5 Z"/></g>
<g><path style="opacity:0.071" fill="#1b1c1b" d="M 201.5,438.5 C 202.833,439.167 202.833,439.167 201.5,438.5 Z"/></g>
<g><path style="opacity:0.016" fill="#000000" d="M 229.5,438.5 C 230.833,439.167 230.833,439.167 229.5,438.5 Z"/></g>
<g><path style="opacity:0.004" fill="#000000" d="M 232.5,438.5 C 233.833,439.167 233.833,439.167 232.5,438.5 Z"/></g>
<g><path style="opacity:0.016" fill="#004000" d="M 251.5,438.5 C 252.833,439.167 252.833,439.167 251.5,438.5 Z"/></g>
<g><path style="opacity:0.012" fill="#000000" d="M 286.5,438.5 C 287.833,439.167 287.833,439.167 286.5,438.5 Z"/></g>
<g><path style="opacity:0.02" fill="#003332" d="M 295.5,438.5 C 296.833,439.167 296.833,439.167 295.5,438.5 Z"/></g>
<g><path style="opacity:0.004" fill="#000000" d="M 342.5,438.5 C 343.833,439.167 343.833,439.167 342.5,438.5 Z"/></g>
<g><path style="opacity:0.008" fill="#000000" d="M 386.5,438.5 C 387.833,439.167 387.833,439.167 386.5,438.5 Z"/></g>
</svg>
